<svg xmlns="http://www.w3.org/2000/svg" viewBox="0 0 1067.6 176.1"><rect x="609.3" width="33" height="176.1"></rect><rect x="1034.6" width="33" height="176.1"></rect><polygon points="389 120.24 323.02 0 287.7 0 287.7 176.1 320.7 176.1 320.7 64.37 382 176.1 395.99 176.1 457.29 64.38 457.29 176.1 490.29 176.1 490.29 0 454.96 0 389 120.24"></polygon><path d="M494.62,452,409.7,628.05h36.63l21.11-43.77h84.15l21.11,43.77h36.63L524.41,452ZM480.74,556.7,509.52,497,538.3,556.7Z" transform="translate(-409.7 -451.95)"></path><path d="M1288.33,556.8a82.54,82.54,0,0,0,14.55-3.36c21.57-7.59,33.16-26.68,33.08-50.33,0-14.38-5.31-26.53-14.53-35.13-11.81-11-25.68-16-53.13-16L1171,452v176.1h33.08l.13-69.23,47.38,0,47.88,69.19h37.6ZM1204,528.25V482.16h68.73c19.14,0,30.12,7.84,30.12,23,0,14.31-11.26,23.2-29.41,23.2Z" transform="translate(-409.7 -451.95)"></path></svg>